# xmcd
#
# Track frame offsets:
#	155
#	8120
#	21390
#	35617
#	48220
#	61792
#	75435
#	89605
#	99305
#	110872
#	125765
#	138027
#	147810
#	159912
#	173265
#	184345
#
# Disc length: 2633 seconds
#
# Revision: 1
# Processed by: cddbd v1.5.1PL0 Copyright (c) Steve Scherf et al.
# Submitted via: audiograbber 1.82.00
#
DISCID=c70a4710
DTITLE=Ramsey Kearney - Christmas Memories
DYEAR=1900
DGENRE=Christmas
TTITLE0=Christmas Time's A-Coming
TTITLE1=Christmas Skies
TTITLE2=Christmas Sounds
TTITLE3=Oh No, No Snow
TTITLE4=Christmas Memories
TTITLE5=Fred The Christmas Frog
TTITLE6=Merry Christmas Country Blues
TTITLE7=Nine Little Reineers
TTITLE8=I Wish Every Day Could Be Christmas
TTITLE9=Snowflakes Falling Down
TTITLE10=It's A Marshmallow World
TTITLE11=Little Choo Choo
TTITLE12=Bells And Bows
TTITLE13=It Happens Every December
TTITLE14=Santa's Sleigh
TTITLE15=Christmas Skies
EXTD=
EXTT0=
EXTT1=
EXTT2=
EXTT3=
EXTT4=
EXTT5=
EXTT6=
EXTT7=
EXTT8=
EXTT9=
EXTT10=
EXTT11=
EXTT12=
EXTT13=
EXTT14=
EXTT15=
PLAYORDER=
